<?xml version="1.0" encoding="utf-8"?>
<!-- Generator: Adobe Illustrator 23.0.4, SVG Export Plug-In . SVG Version: 6.00 Build 0)  -->
<svg version="1.1" id="Layer_1" xmlns="http://www.w3.org/2000/svg" xmlns:xlink="http://www.w3.org/1999/xlink" x="0px" y="0px"
	 viewBox="0 0 24.6 25.3" style="enable-background:new 0 0 24.6 25.3;" xml:space="preserve">
<style type="text/css">
	.st0{fill:#FFFFFF;}
</style>
<path class="st0" d="M16.9,0.6c-3.9,0-7.1,3.2-7.1,7.1c0,1.6,0.5,3,1.4,4.2l-9.9,9.9c-0.4,0.4-0.4,1.1,0,1.6
	c0.2,0.2,0.5,0.3,0.8,0.3s0.6-0.1,0.8-0.3L3.2,23l2,2c0.2,0.2,0.5,0.3,0.8,0.3s0.6-0.1,0.8-0.3c0.4-0.4,0.4-1.1,0-1.6l-2-2l1.7-1.7
	l2,2C8.6,21.9,8.9,22,9.2,22s0.6-0.1,0.8-0.3c0.4-0.4,0.4-1.1,0-1.6l-2-2l4.7-4.7c1.2,0.9,2.6,1.4,4.2,1.4c3.9,0,7.1-3.2,7.1-7.1
	S20.8,0.6,16.9,0.6z M16.9,12.7c-2.7,0-4.9-2.2-4.9-4.9s2.2-4.9,4.9-4.9s4.9,2.2,4.9,4.9S19.6,12.7,16.9,12.7z"/>
</svg>
